<svg id="Layer_1" data-name="Layer 1" xmlns="http://www.w3.org/2000/svg" viewBox="0 0 491.36 269"><defs><style>.cls-1{fill:#fb5058;}.cls-2{fill:#737b82;}.cls-3{fill:#fff;}</style></defs><title>unit00</title><path class="cls-1" d="M367.18,121.5a134.36,134.36,0,0,0-112.81,61.25h10.82a125.63,125.63,0,1,1,28.9,175.36H279.65A134.5,134.5,0,1,0,367.18,121.5Z" transform="translate(-10.32 -121.5)"/><path class="cls-2" d="M15.19,312.76h8.93c6.63,0,10.88,2.52,10.88,8a7.07,7.07,0,0,1-5.1,7.2v.2c4.28.72,7.15,3.4,7.15,8,0,6.35-4.82,9.62-12.29,9.62H15.19Zm8,14.54c6.77,0,9.52-2.39,9.52-6.29,0-4.62-3.2-6.32-9.25-6.32h-6V327.3Zm1,16.56c6.57,0,10.6-2.37,10.6-7.66,0-4.75-3.85-7-10.6-7H17.5v14.67Z" transform="translate(-10.32 -121.5)"/><path class="cls-2" d="M43.52,337.16V321.72h2.22v15.15c0,5.1,1.61,7.52,5.48,7.52,2.86,0,4.94-1.5,7.76-4.91V321.72h2.21v24.07H59.32l-.24-4H59c-2.37,2.76-4.86,4.63-8.17,4.63C45.83,346.39,43.52,343.37,43.52,337.16Z" transform="translate(-10.32 -121.5)"/><path class="cls-2" d="M69.55,314a2,2,0,0,1,4,0,2,2,0,0,1-4,0Zm.86,7.77h2.21v24.07H70.41Z" transform="translate(-10.32 -121.5)"/><path class="cls-2" d="M81.88,342.56V309.74H84.1v33.12c0,1.07.44,1.57,1,1.57a3.78,3.78,0,0,0,.9-.1l.37,1.81a5,5,0,0,1-1.59.25C82.89,346.39,81.88,345.2,81.88,342.56Z" transform="translate(-10.32 -121.5)"/><path class="cls-2" d="M94.32,339.14V323.66H90.56v-1.73l3.81-.21.28-7h1.88v7h7v1.94h-7v15.65c0,3.07.78,5.14,4.09,5.14a8.67,8.67,0,0,0,3-.76l.58,1.8a13.83,13.83,0,0,1-3.93.9C95.67,346.39,94.32,343.45,94.32,339.14Z" transform="translate(-10.32 -121.5)"/><path class="cls-2" d="M119.66,312.76H122v33h-2.31Z" transform="translate(-10.32 -121.5)"/><path class="cls-2" d="M131.44,321.72h1.87l.24,3.73h.11c2.46-2.44,5-4.33,8.28-4.33,5,0,7.28,3,7.28,9.23v15.44H147V330.64c0-5.1-1.61-7.52-5.48-7.52-2.87,0-4.94,1.51-7.87,4.52v18.15h-2.21Z" transform="translate(-10.32 -121.5)"/><path class="cls-2" d="M158.66,339.14V323.66H154.9v-1.73l3.81-.21.28-7h1.88v7h7v1.94h-7v15.65c0,3.07.77,5.14,4.09,5.14a8.72,8.72,0,0,0,3-.76l.58,1.8a13.83,13.83,0,0,1-3.93.9C160,346.39,158.66,343.45,158.66,339.14Z" transform="translate(-10.32 -121.5)"/><path class="cls-2" d="M171.15,333.8c0-7.85,5.11-12.68,10.5-12.68,5.7,0,9.21,4.06,9.21,11.14a9.92,9.92,0,0,1-.13,1.8h-17.3c.08,6.07,3.64,10.41,9.06,10.41a10.82,10.82,0,0,0,6.46-2.13l.92,1.68a13.14,13.14,0,0,1-7.59,2.37C176.14,346.39,171.15,341.67,171.15,333.8Zm17.62-1.56c0-6.15-2.78-9.2-7.1-9.2-4.07,0-7.75,3.44-8.25,9.2Z" transform="translate(-10.32 -121.5)"/><path class="cls-2" d="M194.85,350.71c0-2.1,1.38-4.24,3.59-5.8v-.21a4.32,4.32,0,0,1-2.12-3.85,5.67,5.67,0,0,1,2.62-4.44v-.2a8.86,8.86,0,0,1-3-6.6,8.3,8.3,0,0,1,8.47-8.49,8.57,8.57,0,0,1,3.19.6h8.15v1.89h-5.59a7.92,7.92,0,0,1,2.65,6,8.27,8.27,0,0,1-8.4,8.5,8.16,8.16,0,0,1-4-1,4.43,4.43,0,0,0-2,3.49c0,1.73,1,3.12,4.59,3.12h5.16c5.41,0,7.93,1.73,7.93,5.52,0,4.15-4.44,8.13-11.37,8.13C198.66,357.37,194.85,354.77,194.85,350.71Zm19-1.22c0-2.66-1.93-3.67-5.57-3.67h-5.16a15.37,15.37,0,0,1-3-.39c-2.23,1.5-3.16,3.35-3.16,5.05,0,3,2.91,5.1,8,5.1C210.39,355.58,213.85,352.51,213.85,349.49Zm-3.26-19.88c0-4.06-2.82-6.65-6.22-6.65s-6.23,2.54-6.23,6.65,2.91,6.76,6.23,6.76S210.59,333.64,210.59,329.61Z" transform="translate(-10.32 -121.5)"/><path class="cls-2" d="M221.28,321.72h1.88l.24,4.49h.11c1.63-2.95,4-5.09,6.84-5.09a5,5,0,0,1,2.39.5l-.5,2a5.45,5.45,0,0,0-2.18-.4c-2.16,0-4.73,1.64-6.56,6.19v16.37h-2.22Z" transform="translate(-10.32 -121.5)"/><path class="cls-2" d="M234.39,339.8c0-5.35,4.82-7.89,15.52-9.08.07-3.69-.94-7.65-5.67-7.65a13.23,13.23,0,0,0-7.67,2.82l-1-1.64a16.2,16.2,0,0,1,8.95-3.13c5.7,0,7.63,4.14,7.63,9.29v15.38h-1.88l-.24-3.13h-.11c-2.45,2-5.38,3.73-8.53,3.73C237.56,346.39,234.39,344.31,234.39,339.8Zm15.52.8v-8.19c-9.88,1.14-13.26,3.44-13.26,7.27,0,3.46,2.34,4.78,5.11,4.78S246.94,343.13,249.91,340.6Z" transform="translate(-10.32 -121.5)"/><path class="cls-2" d="M260.72,342.56V309.74h2.21v33.12c0,1.07.44,1.57,1,1.57a3.89,3.89,0,0,0,.91-.1l.37,1.81a5.05,5.05,0,0,1-1.6.25C261.72,346.39,260.72,345.2,260.72,342.56Z" transform="translate(-10.32 -121.5)"/><path class="cls-2" d="M280.32,341.41l1.48-1.58a12.94,12.94,0,0,0,9.69,4.46c5,0,8.22-2.7,8.22-6.63,0-4.12-2.69-5.44-5.94-6.9l-5-2.25c-2.87-1.26-6.7-3.32-6.7-8.21s4.11-8.14,9.6-8.14a12.6,12.6,0,0,1,9.2,4l-1.33,1.53a10.52,10.52,0,0,0-7.87-3.39c-4.36,0-7.28,2.33-7.28,5.9,0,3.85,3.29,5.31,5.71,6.37l5,2.23c3.69,1.65,7,3.69,7,8.74s-4.16,8.89-10.57,8.89A14.51,14.51,0,0,1,280.32,341.41Z" transform="translate(-10.32 -121.5)"/><path class="cls-2" d="M306.7,333.8c0-7.85,5.1-12.68,10.49-12.68,5.7,0,9.21,4.06,9.21,11.14a9.92,9.92,0,0,1-.13,1.8H309c.08,6.07,3.64,10.41,9.06,10.41a10.82,10.82,0,0,0,6.46-2.13l.92,1.68a13.14,13.14,0,0,1-7.59,2.37C311.68,346.39,306.7,341.67,306.7,333.8Zm17.61-1.56c0-6.15-2.78-9.2-7.1-9.2-4.07,0-7.75,3.44-8.25,9.2Z" transform="translate(-10.32 -121.5)"/><path class="cls-2" d="M332.92,321.72h1.87l.25,4.49h.11c1.62-2.95,4-5.09,6.84-5.09a5.07,5.07,0,0,1,2.39.5l-.51,2a5.37,5.37,0,0,0-2.17-.4c-2.16,0-4.73,1.64-6.56,6.19v16.37h-2.22Z" transform="translate(-10.32 -121.5)"/><path class="cls-2" d="M346.59,321.72H349l5.42,15.08c.78,2.32,1.65,4.75,2.43,6.91h.2c.78-2.16,1.66-4.59,2.44-6.91l5.41-15.08h2.26l-8.91,24.07h-2.61Z" transform="translate(-10.32 -121.5)"/><path class="cls-2" d="M371.49,314a2,2,0,0,1,4,0,2,2,0,0,1-4,0Zm.86,7.77h2.22v24.07h-2.22Z" transform="translate(-10.32 -121.5)"/><path class="cls-2" d="M381.8,333.8c0-8.05,5.15-12.68,11-12.68a9.88,9.88,0,0,1,7,3l-1.3,1.54a8.22,8.22,0,0,0-5.69-2.55c-4.92,0-8.72,4.39-8.72,10.72s3.46,10.63,8.69,10.63a9.59,9.59,0,0,0,6.44-2.77l1.15,1.55a11.42,11.42,0,0,1-7.69,3.18C386.5,346.39,381.8,341.76,381.8,333.8Z" transform="translate(-10.32 -121.5)"/><path class="cls-2" d="M403.45,333.8c0-7.85,5.1-12.68,10.49-12.68,5.71,0,9.21,4.06,9.21,11.14a10.89,10.89,0,0,1-.12,1.8h-17.3c.08,6.07,3.63,10.41,9.06,10.41a10.85,10.85,0,0,0,6.46-2.13l.91,1.68a13.11,13.11,0,0,1-7.58,2.37C408.43,346.39,403.45,341.67,403.45,333.8Zm17.62-1.56c0-6.15-2.79-9.2-7.11-9.2-4.06,0-7.74,3.44-8.24,9.2Z" transform="translate(-10.32 -121.5)"/><path class="cls-2" d="M426.68,343.06l1.28-1.61a11.17,11.17,0,0,0,7.65,3c3.79,0,5.75-2.21,5.75-4.75,0-3-3.11-4.34-5.89-5.34-3.63-1.29-7.67-2.76-7.67-6.87,0-3.47,2.75-6.41,7.76-6.41a11.26,11.26,0,0,1,6.87,2.5l-1.19,1.59A9.16,9.16,0,0,0,435.5,323c-3.75,0-5.45,2.16-5.45,4.38,0,2.74,2.83,3.79,5.7,4.87,3.73,1.42,7.86,2.64,7.86,7.33,0,3.63-2.9,6.79-8.11,6.79A13.71,13.71,0,0,1,426.68,343.06Z" transform="translate(-10.32 -121.5)"/><rect class="cls-1" y="70.49" width="295.52" height="100.55"/><path class="cls-3" d="M21.56,251.32V201.53H32.35v50.09C32.35,272,41,278.41,52,278.41c11.24,0,20.11-6.41,20.11-26.79V201.53H82.49v49.79c0,27.22-13.14,36.58-30.45,36.58S21.56,278.54,21.56,251.32Z" transform="translate(-10.32 -121.5)"/><path class="cls-3" d="M105.26,201.53H116.4l30.7,53.32,9.15,17.56h.52c-.54-8.55-1.37-18.11-1.37-27v-43.9h10.25v84.82H154.5L123.81,233l-9.16-17.51h-.52c.55,8.58,1.38,17.62,1.38,26.49v44.39H105.26Z" transform="translate(-10.32 -121.5)"/><path class="cls-3" d="M188.86,201.53h10.79v84.82H188.86Z" transform="translate(-10.32 -121.5)"/><path class="cls-3" d="M240.5,210.67H214.84v-9.14H277v9.14H251.29v75.68H240.5Z" transform="translate(-10.32 -121.5)"/><path class="cls-3" d="M276.44,249.85h29.62V258H276.44Z" transform="translate(-10.32 -121.5)"/><path class="cls-2" d="M315.66,245c0-28,12.41-42.12,30.5-42.12s30.49,14.21,30.49,42.12-12.4,42.91-30.49,42.91S315.66,273,315.66,245Zm40.06,0c0-21.71-4.39-25.07-9.56-25.07s-9.57,3.36-9.57,25.07,4.4,25.85,9.57,25.85S355.72,266.7,355.72,245Z" transform="translate(-10.32 -121.5)"/><path class="cls-2" d="M385.44,245c0-28,12.4-42.12,30.49-42.12s30.5,14.21,30.5,42.12S434,287.9,415.93,287.9,385.44,273,385.44,245Zm40.06,0c0-21.71-4.4-25.07-9.57-25.07s-9.56,3.36-9.56,25.07,4.39,25.85,9.56,25.85S425.5,266.7,425.5,245Z" transform="translate(-10.32 -121.5)"/></svg>