<svg id="Capa_1" data-name="Capa 1" xmlns="http://www.w3.org/2000/svg" viewBox="0 0 478.7 478.7"><defs><style>.cls-1{fill:#fff;}</style></defs><title>_</title><path class="cls-1" d="M462.41,213.13h0l-57.83-38.34V46.66a7.5,7.5,0,0,0-7.5-7.5H81.6a7.5,7.5,0,0,0-7.5,7.5V174.8L16.29,213.13h0a7.5,7.5,0,0,0-3.36,6.25V451.64a7.5,7.5,0,0,0,7.5,7.5H458.27a7.5,7.5,0,0,0,7.5-7.5V219.38a7.47,7.47,0,0,0-3.36-6.25ZM74.1,239.36,50.58,226.88H74.1Zm-46.17-7.51,172.48,91.49L27.93,437.67Zm211.42,83.67,194,128.62H45.31l194-128.62Zm38.94,7.82,172.48-91.49V437.67L278.29,323.34Zm126.3-96.46h23.54l-23.54,12.48Zm28.8-15h-28.8V192.79ZM389.59,54.16V247.32L264.06,313.91l-20.57-13.64a7.52,7.52,0,0,0-8.29,0l-20.57,13.64L89.1,247.32V54.16ZM74.1,211.88H45.32L74.1,192.8Z"/><path class="cls-1" d="M239.35,236.4H299.1a7.5,7.5,0,0,0,0-15H239.35a52.31,52.31,0,0,1-52.26-52.25v-2.22a52.26,52.26,0,0,1,104.51,0v5.54a11.31,11.31,0,0,1-22.62,0V162a32.45,32.45,0,1,0-11.06,24.34,26.3,26.3,0,0,0,48.68-13.83v-5.54a67.26,67.26,0,0,0-134.51,0v2.22a67.33,67.33,0,0,0,67.26,67.25Zm-2.77-57.05A17.4,17.4,0,1,1,254,162,17.42,17.42,0,0,1,236.58,179.35Z"/></svg>