<?xml version="1.0" encoding="utf-8"?>
<!-- Generator: Adobe Illustrator 23.0.1, SVG Export Plug-In . SVG Version: 6.00 Build 0)  -->
<svg version="1.1" id="Layer_1" xmlns="http://www.w3.org/2000/svg" xmlns:xlink="http://www.w3.org/1999/xlink" x="0px" y="0px"
	 viewBox="0 0 86.2 76.5" style="enable-background:new 0 0 86.2 76.5;" xml:space="preserve">
<style type="text/css">
	.st0{fill:#FFFFFF;}
</style>
<g>
	<g>
		<path class="st0" d="M62.8,18.8c-2.8,0-5.1,2.3-5.1,5.1v46.2c0,2.8,2.3,5.1,5.1,5.1s5.1-2.3,5.1-5.1V23.9
			C67.9,21.1,65.6,18.8,62.8,18.8z"/>
		<path class="st0" d="M80.5,32c-2.8,0-5.1,2.3-5.1,5.1v33c0,2.8,2.3,5.1,5.1,5.1s5.1-2.3,5.1-5.1v-33C85.6,34.2,83.3,32,80.5,32z"
			/>
	</g>
	<path class="st0" d="M50.6,6.4c0-2.8-2.3-5.1-5.1-5.1s-5.1,2.3-5.1,5.1v23.6c-4.1-3-9.2-4.9-14.8-4.9c-13.8,0-25,11.2-25,25
		s11.2,25,25,25s25-11.2,25-25c0-0.2,0-0.4,0-0.6c0-0.1,0-0.2,0-0.3L50.6,6.4L50.6,6.4z M25.6,64.9c-8.1,0-14.8-6.6-14.8-14.8
		s6.6-14.8,14.8-14.8s14.8,6.6,14.8,14.8S33.7,64.9,25.6,64.9z"/>
</g>
</svg>
